<?xml version="1.0" encoding="utf-8"?>
<!-- Generator: Adobe Illustrator 19.2.1, SVG Export Plug-In . SVG Version: 6.00 Build 0)  -->
<!DOCTYPE svg PUBLIC "-//W3C//DTD SVG 1.1//EN" "http://www.w3.org/Graphics/SVG/1.1/DTD/svg11.dtd">
<svg version="1.1" id="レイヤー_1" xmlns="http://www.w3.org/2000/svg" xmlns:xlink="http://www.w3.org/1999/xlink" x="0px"
	 y="0px" width="170px" height="31px" viewBox="0 0 170 31" style="enable-background:new 0 0 170 31;" xml:space="preserve">
<style type="text/css">
	.st0{fill:#00479D;}
	.st1{fill:#0085CE;}
	.st2{fill:none;}
</style>
<g>
	<g>
		<path class="st0" d="M0,0h9.3v22.8h14.6v7.5H0V0z"/>
		<path class="st0" d="M47.7,21.3H30.9c0.2,1.4,0.5,2.4,1.1,3c0.8,1,1.9,1.4,3.2,1.4c0.8,0,1.6-0.2,2.3-0.6c0.5-0.3,0.9-0.7,1.5-1.4
			l8.3,0.8c-1.3,2.2-2.8,3.8-4.6,4.7c-1.8,1-4.3,1.4-7.7,1.4c-2.9,0-5.2-0.4-6.8-1.2c-1.7-0.8-3-2.1-4.1-3.9s-1.6-3.9-1.6-6.3
			c0-3.4,1.1-6.2,3.3-8.3s5.2-3.2,9.1-3.2c3.1,0,5.6,0.5,7.4,1.4c1.8,0.9,3.2,2.3,4.1,4.1c0.9,1.8,1.4,4.1,1.4,7v1.1H47.7z
			 M39.2,17.3c-0.2-1.6-0.6-2.8-1.3-3.5s-1.6-1.1-2.8-1.1c-1.3,0-2.4,0.5-3.2,1.6c-0.5,0.7-0.8,1.6-1,2.9h8.3V17.3z"/>
		<path class="st0" d="M55,15.4l-8-0.8c0.3-1.4,0.7-2.5,1.3-3.3s1.4-1.5,2.5-2.1c0.8-0.4,1.8-0.8,3.2-1c1.3-0.2,2.8-0.4,4.4-0.4
			c2.5,0,4.5,0.1,6.1,0.4c1.5,0.3,2.8,0.9,3.8,1.8c0.7,0.6,1.3,1.5,1.7,2.6c0.4,1.1,0.6,2.2,0.6,3.2v9.7c0,1,0.1,1.8,0.2,2.4
			s0.4,1.3,0.9,2.2h-7.9c-0.3-0.6-0.5-1-0.6-1.3S63,28,62.9,27.4c-1.1,1.1-2.2,1.8-3.3,2.3c-1.5,0.6-3.2,0.9-5.2,0.9
			c-2.6,0-4.6-0.6-5.9-1.8c-1.4-1.2-2-2.7-2-4.5c0-1.7,0.5-3,1.5-4.1s2.8-1.9,5.4-2.4c3.1-0.6,5.2-1.1,6.1-1.3c0.9-0.3,1.9-0.6,3-1
			c0-1-0.2-1.8-0.6-2.2c-0.4-0.4-1.2-0.6-2.2-0.6c-1.4,0-2.4,0.2-3.1,0.7C55.7,13.8,55.3,14.4,55,15.4z M62.2,19.8
			c-1.1,0.4-2.3,0.8-3.6,1.1c-1.7,0.5-2.8,0.9-3.2,1.3c-0.5,0.5-0.7,1-0.7,1.5c0,0.7,0.2,1.2,0.7,1.6s1.1,0.6,2,0.6s1.8-0.2,2.6-0.7
			s1.4-1,1.7-1.7s0.5-1.5,0.5-2.6V19.8z"/>
		<path class="st0" d="M94.3,0v30.2h-7.8V27c-1.1,1.4-2.1,2.3-3,2.8c-1.2,0.6-2.6,0.9-4,0.9c-3,0-5.3-1.1-6.8-3.4
			c-1.6-2.3-2.4-5-2.4-8.3c0-3.6,0.9-6.4,2.6-8.3s3.9-2.9,6.6-2.9c1.3,0,2.5,0.2,3.6,0.7c1.1,0.4,2,1.1,2.8,2V0H94.3z M84.8,19.2
			c0-1.7-0.4-3-1.1-3.9C83,14.5,82.1,14,80.9,14c-1,0-1.8,0.4-2.5,1.2c-0.7,0.8-1,2.2-1,4.1c0,1.8,0.3,3.1,1,3.9s1.5,1.2,2.5,1.2
			c1.1,0,2-0.4,2.7-1.3C84.4,22.5,84.8,21.1,84.8,19.2z"/>
		<path class="st1" d="M94,0h15.5c3.4,0,5.9,0.8,7.6,2.4s2.5,3.9,2.5,6.9c0,3.1-0.9,5.4-2.8,7.2c-1.8,1.7-4.6,2.6-8.4,2.6h-5.1v11.2
			H94V0z M103.4,12.9h2.3c1.8,0,3.1-0.3,3.8-0.9c0.7-0.6,1.1-1.4,1.1-2.4c0-0.9-0.3-1.8-1-2.4c-0.6-0.7-1.8-1-3.6-1h-2.7L103.4,12.9
			L103.4,12.9z"/>
		<path class="st1" d="M118.4,0h8.4v30.2h-8.4V0z"/>
		<path class="st1" d="M149.3,30.2h-7.8v-3.5c-1.2,1.5-2.3,2.5-3.5,3.1s-2.6,0.9-4.4,0.9c-2.3,0-4.1-0.7-5.4-2.1
			c-1.3-1.4-2-3.5-2-6.4V8.3h8.4v12c0,1.4,0.3,2.3,0.8,2.9s1.2,0.9,2.1,0.9c1,0,1.8-0.4,2.5-1.2c0.6-0.8,1-2.2,1-4.1V8.3h8.4v21.9
			H149.3z"/>
		<path class="st1" d="M147,24.1l8.3-0.8c0.3,1,0.8,1.7,1.4,2.1c0.6,0.4,1.4,0.6,2.5,0.6s2-0.2,2.6-0.7c0.5-0.4,0.7-0.8,0.7-1.3
			c0-0.6-0.3-1.1-1-1.4c-0.5-0.2-1.7-0.5-3.6-0.9c-2.9-0.5-4.9-1-6.1-1.4c-1.1-0.4-2.1-1.2-2.9-2.2c-0.8-1-1.2-2.2-1.2-3.5
			c0-1.4,0.4-2.7,1.3-3.7c0.8-1,2-1.8,3.5-2.3s3.4-0.8,5.9-0.8c2.6,0,4.5,0.2,5.8,0.6c1.2,0.4,2.3,1,3.1,1.9c0.8,0.8,1.5,2,2.1,3.4
			l-8,0.8c-0.2-0.7-0.6-1.2-1-1.5c-0.7-0.4-1.5-0.7-2.4-0.7c-1,0-1.6,0.2-2.1,0.5c-0.4,0.3-0.7,0.7-0.7,1.2s0.3,0.9,0.8,1.2
			s1.7,0.5,3.6,0.7c2.8,0.3,4.9,0.8,6.2,1.3c1.4,0.6,2.4,1.4,3.1,2.4c0.7,1,1.1,2.2,1.1,3.4c0,1.3-0.4,2.5-1.1,3.7
			c-0.8,1.2-2,2.1-3.6,2.9c-1.6,0.7-3.9,1.1-6.7,1.1c-4,0-6.9-0.6-8.6-1.7C148.6,27.9,147.5,26.2,147,24.1z"/>
	</g>
</g>
<rect y="0" class="st2" width="170" height="31"/>
</svg>
